<?xml version="1.0" encoding="UTF-8"?><svg id="a" xmlns="http://www.w3.org/2000/svg" viewBox="0 0 897.01 287.2"><path d="M187,184.2l-51.2,103-51.2-103v-66.1l25.9,54.9h0l25.3,53.5,25.3-53.5h0l25.9-54.9h0v66.1ZM92.6,86.3l25.9,54.9V60.4h-61.3l-16.3-34.5h189.6l-16.3,34.5h-61.2v80.8l25.9-54.9h51.8L271.5,0H0l40.8,86.3h51.8Z" fill="#000" stroke-width="0"/><path d="M373.56,222.67l-8.07-21.43h-1.11c-6.96,9.05-14.2,15.45-21.57,18.93-7.38,3.48-17.12,5.29-28.95,5.29-14.61,0-26.17-4.31-34.52-12.94-8.35-8.63-12.67-21.02-12.67-36.88,0-16.7,5.71-29.09,16.98-37.02,11.27-7.93,28.39-12.39,51.22-13.22l26.44-.84v-6.96c0-16.01-7.93-23.94-23.66-23.94-12.25,0-26.44,3.76-43.01,11.41l-13.78-29.09c17.54-9.46,37.02-14.2,58.32-14.2s36.19,4.59,47.04,13.78,16.42,23.24,16.42,42.03v104.94l-29.09.14h0ZM361.17,149.74l-16.14.56c-12.11.42-21.02,2.64-27,6.82-5.85,4.18-8.91,10.44-8.91,18.93,0,12.11,6.68,18.23,20.18,18.23,9.6,0,17.4-2.92,23.1-8.63,5.71-5.71,8.63-13.36,8.63-22.83l.14-13.08h0Z" fill="#000" stroke-width="0"/><path d="M524.01,62.2c5.57,0,10.3.42,14.06,1.25l-3.2,40.36c-3.34-.97-7.52-1.39-12.25-1.39-13.22,0-23.66,3.48-31.04,10.58-7.38,7.1-11.13,16.98-11.13,29.64v80.17h-41.61V65.12h31.45l6.12,26.44h2.09c4.73-8.77,11.13-16.01,19.21-21.29,8.07-5.29,16.84-8.07,26.3-8.07Z" fill="#000" stroke-width="0"/><path d="M607.79,222.67l-58.04-157.55h43.42l29.51,89.77c3.2,11.41,5.29,22.13,6.12,32.29h.84c.42-9.05,2.51-19.76,6.12-32.29l29.37-89.77h43.42l-58.04,157.55h-42.73Z" fill="#000" stroke-width="0"/><path d="M725.68,24.48c0-14.06,7.52-21.02,22.69-21.02s22.69,6.96,22.69,21.02c0,6.68-1.95,11.83-5.71,15.59-3.76,3.76-9.46,5.57-16.98,5.57-15.17,0-22.69-7.1-22.69-21.16ZM769.1,222.67h-41.61V65.12h41.61v157.55Z" fill="#000" stroke-width="0"/><path d="M870.84,191.36c7.24,0,16.01-1.67,26.17-4.87v32.01c-10.3,4.73-23.1,7.24-38.13,7.24-16.56,0-28.67-4.31-36.33-13.08-7.65-8.63-11.41-21.71-11.41-39.11v-75.99h-19.9v-18.23l22.96-14.34,11.97-33.26h26.58v33.54h42.73v32.29h-42.73v75.99c0,6.12,1.67,10.58,5.01,13.5,3.2,2.78,7.65,4.31,13.08,4.31Z" fill="#000" stroke-width="0"/></svg>